<svg width="22" height="19" viewBox="0 0 22 19" fill="none" xmlns="http://www.w3.org/2000/svg">
<path d="M12.859 2.43207L12.8589 2.43205L12.8548 2.43625L10.9882 4.31955L9.10379 2.45631C9.10349 2.45601 9.10319 2.4557 9.10289 2.4554C7.2588 0.614931 4.27581 0.621071 2.46041 2.43405C2.4604 2.43405 2.4604 2.43405 2.4604 2.43405L2.45571 2.43874C1.56634 3.3186 1.08967 4.48652 1.08967 5.74496C1.08967 6.99135 1.5804 8.16456 2.45859 9.054L2.45856 9.05403L2.46283 9.05825L10.6288 17.1326L10.9804 17.4802L11.3319 17.1326L19.5266 9.02987C21.3739 7.20327 21.368 4.2406 19.5304 2.44162L19.5266 2.43784C19.5265 2.43774 19.5264 2.43763 19.5262 2.43752C17.6862 0.618508 14.7013 0.616708 12.859 2.43207ZM2.03566 2.0374L2.03566 2.03741L2.03742 2.03565C4.07925 -0.00345929 7.42928 -0.0131171 9.50496 2.03622L9.52676 2.05787L9.52852 2.0596L10.6288 3.14754L10.9839 3.49868L11.3355 3.14397L12.4337 2.03586L12.4437 2.02603L12.0932 1.66944L12.4437 2.02603C14.5178 -0.0124713 17.8782 -0.00865881 19.9475 2.03741L19.9493 2.03914C22.0159 4.06236 22.0185 7.38257 19.9475 9.43032L10.9804 18.2968L2.0393 9.45616C2.0387 9.45555 2.03809 9.45494 2.03749 9.45433C1.05161 8.45828 0.5 7.14155 0.5 5.74496C0.5 4.34306 1.03283 3.02898 2.03566 2.0374Z" stroke="black"/>
</svg>
